<?xml version="1.0" standalone="no"?>
<!DOCTYPE svg PUBLIC "-//W3C//DTD SVG 20010904//EN"
 "http://www.w3.org/TR/2001/REC-SVG-20010904/DTD/svg10.dtd">
<svg version="1.0" xmlns="http://www.w3.org/2000/svg"
 width="133.000000pt" height="45.000000pt" viewBox="0 0 133.000000 45.000000"
 preserveAspectRatio="xMidYMid meet">

<g transform="translate(0.000000,45.000000) scale(0.100000,-0.100000)"
fill="#000000" stroke="none">
<path d="M0 225 l0 -225 665 0 665 0 0 225 0 225 -665 0 -665 0 0 -225z m832
151 c17 -39 4 -60 -36 -53 -32 5 -59 -6 -93 -39 -17 -17 -54 -12 -67 9 -8 13
-8 20 2 26 8 4 13 12 12 17 -2 17 34 16 46 -1 11 -15 15 -15 43 -1 17 9 33 27
37 41 8 33 41 33 56 1z m385 -17 c48 -23 53 -36 22 -62 -19 -17 -22 -17 -38
-3 -27 25 -88 20 -116 -9 -75 -74 27 -189 113 -129 21 15 25 15 43 -2 26 -23
24 -31 -13 -54 -41 -25 -117 -26 -164 -4 -70 33 -98 135 -58 205 22 39 93 79
138 79 16 0 49 -9 73 -21z m-907 -19 l0 -30 -75 0 c-73 0 -75 -1 -75 -25 0
-24 2 -25 65 -25 l65 0 0 -30 0 -30 -65 0 -65 0 0 -30 0 -29 78 -3 c76 -3 77
-3 80 -31 l3 -27 -115 0 -116 0 0 145 0 145 110 0 110 0 0 -30z m129 -62 c20
-48 40 -90 43 -93 3 -3 23 36 45 87 37 87 42 93 71 96 23 2 32 -1 32 -12 0 -8
-25 -74 -57 -145 -56 -130 -57 -131 -89 -131 -26 0 -37 6 -48 28 -24 46 -106
242 -106 253 0 6 16 9 36 7 35 -3 37 -5 73 -90z m521 62 c8 -5 11 -10 5 -10
-5 0 -3 -5 5 -10 11 -7 12 -14 4 -27 -16 -25 -34 -28 -34 -4 0 11 -4 22 -9 25
-4 3 -6 -6 -3 -19 5 -30 2 -31 -29 -4 -13 11 -31 25 -39 29 -24 14 -4 23 21
10 18 -10 23 -9 31 4 10 18 26 20 48 6z m-145 -53 c1 -7 7 -24 14 -39 18 -35
8 -58 -24 -58 -32 0 -42 23 -24 58 12 25 15 34 18 56 1 13 16 -2 16 -17z
m-135 -57 c0 -16 -4 -30 -10 -30 -11 0 -14 43 -3 53 11 12 13 8 13 -23z m268
-9 c-1 -16 5 -35 15 -45 20 -20 22 -37 5 -54 -18 -18 -28 -15 -29 11 l-2 22
-4 -23 c-3 -17 -9 -21 -24 -17 -10 4 -19 2 -19 -4 0 -6 -11 -13 -24 -17 -14
-3 -27 -12 -30 -20 -3 -8 -14 -14 -25 -14 -27 0 -90 42 -91 60 0 11 3 11 12 2
26 -26 60 -6 63 35 0 15 20 13 20 -2 0 -5 6 -20 13 -32 12 -21 14 -21 40 -6
31 18 62 76 62 117 0 17 4 25 11 21 6 -4 9 -19 7 -34z m-248 -50 c23 -44 4
-69 -45 -57 -29 7 -33 36 -9 60 21 21 41 20 54 -3z"/>
<path d="M796 358 c3 -5 10 -6 15 -3 13 9 11 12 -6 12 -8 0 -12 -4 -9 -9z"/>
<path d="M796 228 c3 -5 10 -6 15 -3 13 9 11 12 -6 12 -8 0 -12 -4 -9 -9z"/>
<path d="M796 98 c3 -5 10 -6 15 -3 13 9 11 12 -6 12 -8 0 -12 -4 -9 -9z"/>
</g>
</svg>
